<?xml version="1.0" encoding="UTF-8" standalone="no"?>
<svg
   id="Layer_1"
   version="1.1"
   viewBox="0 0 95.949997 84.099997"
   sodipodi:docname="logo2.svg"
   inkscape:version="1.3.2 (091e20e, 2023-11-25)"
   width="95.949997"
   height="84.099998"
   xmlns:inkscape="http://www.inkscape.org/namespaces/inkscape"
   xmlns:sodipodi="http://sodipodi.sourceforge.net/DTD/sodipodi-0.dtd"
   xmlns="http://www.w3.org/2000/svg"
   xmlns:svg="http://www.w3.org/2000/svg">
  <sodipodi:namedview
     id="namedview13"
     pagecolor="#ffffff"
     bordercolor="#000000"
     borderopacity="0.25"
     inkscape:showpageshadow="2"
     inkscape:pageopacity="0.0"
     inkscape:pagecheckerboard="0"
     inkscape:deskcolor="#d1d1d1"
     inkscape:zoom="1.1937393"
     inkscape:cx="278.53654"
     inkscape:cy="40.628638"
     inkscape:window-width="1712"
     inkscape:window-height="1044"
     inkscape:window-x="0"
     inkscape:window-y="35"
     inkscape:window-maximized="0"
     inkscape:current-layer="Layer_1" />
  <!-- Generator: Adobe Illustrator 29.0.1, SVG Export Plug-In . SVG Version: 2.1.0 Build 192)  -->
  <defs
     id="defs2">
    <style
       id="style1">
      .st0 {
        fill: #df3730;
        stroke: #fff;
        stroke-miterlimit: 10;
        stroke-width: 4px;
      }

      .st1 {
        fill: url(#linear-gradient);
        fill-rule: evenodd;
      }
    </style>
    <linearGradient
       id="linear-gradient"
       x1="177.5"
       y1="76.900002"
       x2="178"
       y2="76.900002"
       gradientTransform="matrix(1,0,0,-1,0,150)"
       gradientUnits="userSpaceOnUse">
      <stop
         offset="0"
         stop-color="#ffaf00"
         id="stop1" />
      <stop
         offset=".3"
         stop-color="#fbef53"
         id="stop2" />
    </linearGradient>
  </defs>
  <path
     class="st0"
     d="M 95.625,41.3 73.025,0.8 C 72.725,0.3 72.225,0 71.725,0 h -47.8 c -0.1,0 -0.3,0 -0.4,0 v 0 c -0.2,0 -0.5,0.2 -0.6,0.5 l -22.7,40.7 c -0.3,0.5 -0.3,1 0,1.5 l 22.7,40.7 c 0.1,0.3 0.3,0.4 0.6,0.5 v 0 c 0,0.1 25.5,0.1 25.5,0.1 0.1,0 0.3,0.1 0.4,0.1 h 22.4 c 0.5,0 1,-0.3 1.3,-0.8 l 22.6,-40.5 c 0.3,-0.5 0.3,-1 0,-1.5 z"
     id="path2"
     style="stroke-width:0;stroke-dasharray:none" />
  <polygon
     class="st1"
     points="86,65.3 58.8,107.5 59.3,79.3 31.5,79.3 59,38.8 57.6,65.3 "
     id="polygon2"
     style="fill:#fdf829;fill-opacity:1"
     transform="translate(-11.275,-31.4)" />
</svg>
