<?xml version="1.0" encoding="UTF-8" standalone="no"?>
<svg
   id="Layer_1"
   version="1.1"
   viewBox="0 0 712 148.3"
   sodipodi:docname="logo.svg"
   inkscape:version="1.3.2 (091e20e, 2023-11-25)"
   xmlns:inkscape="http://www.inkscape.org/namespaces/inkscape"
   xmlns:sodipodi="http://sodipodi.sourceforge.net/DTD/sodipodi-0.dtd"
   xmlns="http://www.w3.org/2000/svg"
   xmlns:svg="http://www.w3.org/2000/svg">
  <sodipodi:namedview
     id="namedview13"
     pagecolor="#ffffff"
     bordercolor="#000000"
     borderopacity="0.25"
     inkscape:showpageshadow="2"
     inkscape:pageopacity="0.0"
     inkscape:pagecheckerboard="0"
     inkscape:deskcolor="#d1d1d1"
     inkscape:zoom="1.6882022"
     inkscape:cx="334.97172"
     inkscape:cy="55.680533"
     inkscape:window-width="2560"
     inkscape:window-height="1381"
     inkscape:window-x="0"
     inkscape:window-y="31"
     inkscape:window-maximized="0"
     inkscape:current-layer="Layer_1" />
  <!-- Generator: Adobe Illustrator 29.0.1, SVG Export Plug-In . SVG Version: 2.1.0 Build 192)  -->
  <defs
     id="defs2">
    <style
       id="style1">
      .st0 {
        fill: #df3730;
        stroke: #fff;
        stroke-miterlimit: 10;
        stroke-width: 4px;
      }

      .st1 {
        fill: url(#linear-gradient);
        fill-rule: evenodd;
      }
    </style>
    <linearGradient
       id="linear-gradient"
       x1="177.5"
       y1="76.9"
       x2="178"
       y2="76.9"
       gradientTransform="translate(0 150) scale(1 -1)"
       gradientUnits="userSpaceOnUse">
      <stop
         offset="0"
         stop-color="#ffaf00"
         id="stop1" />
      <stop
         offset=".3"
         stop-color="#fbef53"
         id="stop2" />
    </linearGradient>
  </defs>
  <path
     class="st0"
     d="M106.9,72.7l-22.6-40.5c-.3-.5-.8-.8-1.3-.8h-47.8c-.1,0-.3,0-.4,0h0c-.2,0-.5.2-.6.5l-22.7,40.7c-.3.5-.3,1,0,1.5l22.7,40.7c.1.3.3.4.6.5h0c0,.1,25.5.1,25.5.1.1,0,.3.1.4.1h22.4c.5,0,1-.3,1.3-.8l22.6-40.5c.3-.5.3-1,0-1.5Z"
     id="path2"
     style="stroke-width:0;stroke-dasharray:none" />
  <polygon
     class="st1"
     points="59 38.8 57.6 65.3 86 65.3 58.8 107.5 59.3 79.3 31.5 79.3 59 38.8"
     id="polygon2"
     style="fill:#fdf829;fill-opacity:1" />
  <polygon
     points="134.4 49.5 148.2 49.5 142 85 156.8 85 154.7 97 126.1 97 134.4 49.5"
     id="polygon3"
     style="fill:#ffffff;fill-opacity:1" />
  <polygon
     points="168.3 49.5 160 97 173.8 97 182 49.5 168.3 49.5"
     id="polygon4"
     style="fill:#ffffff;fill-opacity:1" />
  <path
     d="M185.2,49.5l7.3,47.6h10.5l23.7-47.6h-13.7l-11.4,26.7-2.6-26.7h-13.8Z"
     id="path4"
     style="fill:#ffffff;fill-opacity:1" />
  <path
     d="M230.1,49.5l-8.3,47.6h30.6l1.9-10.9h-17l1.4-8.2h12.9l1.8-10.2h-12.9l1.3-7.3h16.5l1.9-10.9h-30.1Z"
     id="path5"
     style="fill:#ffffff;fill-opacity:1" />
  <path
     d="M359.6,50.9c-1.1-.8-2.4-1.4-3.8-1.6-1.7-.3-3.4-.4-5.2-.4h-11.5c-1.8,0-3.5.1-5.3.4-1.5.3-3,.8-4.3,1.6-1.3.8-2.3,1.8-3.1,3.1-.9,1.6-1.5,3.3-1.8,5.1l-4.9,27.8c-.3,1.7-.3,3.5,0,5.3.3,1.3.9,2.4,1.9,3.3,1.1.9,2.4,1.4,3.7,1.7,1.8.3,3.5.5,5.3.5h11.4c1.8,0,3.7-.1,5.5-.5,1.5-.3,3-.8,4.3-1.7,1.3-.8,2.3-1.9,3.1-3.3.9-1.6,1.5-3.4,1.8-5.3l4.9-27.8c.4-1.7.4-3.5,0-5.1-.3-1.2-1.1-2.3-2.1-3.1ZM343.2,85.4h-9.4l4.3-24.3h9.4l-4.3,24.3Z"
     id="path6"
     style="fill:#ffffff;fill-opacity:1" />
  <polygon
     points="387.7 68.4 401 49.5 413.6 49.5 405.3 97 391.5 97 395.9 72.2 384.1 89.1 377.9 72.5 373.7 97 361.7 97 370 49.5 380.3 49.5 387.7 68.4"
     id="polygon6"
     style="fill:#ffffff;fill-opacity:1" />
  <path
     d="M493.8,50.9c-1.1-.8-2.4-1.4-3.8-1.6-1.7-.3-3.4-.4-5.2-.4h-11.5c-1.8,0-3.5.1-5.3.4-1.5.3-3,.8-4.3,1.6-1.3.8-2.3,1.8-3.1,3.1-.9,1.6-1.5,3.3-1.8,5.1l-4.9,27.8c-.3,1.7-.3,3.5,0,5.3.3,1.3.9,2.4,1.9,3.3,1.1.9,2.4,1.4,3.7,1.7,1.8.3,3.5.5,5.3.5h11.4c1.8,0,3.7-.1,5.5-.5,1.5-.3,3-.8,4.3-1.7,1.3-.8,2.3-1.9,3.1-3.3.9-1.6,1.5-3.4,1.8-5.3l4.9-27.8c.4-1.7.4-3.5,0-5.1-.3-1.2-1.1-2.3-2.1-3.1ZM477.4,85.4h-9.4l4.3-24.3h9.4l-4.3,24.3Z"
     id="path7"
     style="fill:#ffffff;fill-opacity:1" />
  <path
     d="M504.5,49.5l-8.3,47.6h12.5l3.8-22.1,12.3,22.1h9.9l8.3-47.6h-12.5l-3.9,22.2-12.3-22.2h-9.8Z"
     id="path8"
     style="fill:#ffffff;fill-opacity:1" />
  <path
     d="M549.3,49.5l-8.3,47.6h30.6l1.9-10.9h-17l1.4-8.2h12.9l1.8-10.2h-12.9l1.3-7.3h16.5l1.9-10.9h-30.1Z"
     id="path9"
     style="fill:#ffffff;fill-opacity:1" />
  <path
     d="M585.7,49.5l-8.3,47.6h12.5l3.8-22.1,12.3,22.1h9.9l8.3-47.6h-12.5l-3.9,22.2-12.3-22.2h-9.8Z"
     id="path10"
     style="fill:#ffffff;fill-opacity:1" />
  <path
     d="M638.1,60.7l-6.3,35.8h13.5l6.3-35.8h10.9l2-11.8h-35.4l-2,11.8h10.9Z"
     id="path11"
     style="fill:#ffffff;fill-opacity:1" />
  <path
     d="M317.4,61.2l3-12.2h-18.2c-1.8,0-3.5.1-5.3.4-1.5.3-3,.8-4.3,1.6-1.3.8-2.3,1.8-3.1,3.1-.9,1.6-1.5,3.3-1.8,5.1l-4.9,27.8c-.3,1.7-.3,3.5,0,5.3.3,1.3.9,2.4,1.9,3.3,1.1.9,2.4,1.4,3.7,1.7,1.8.3,3.5.5,5.3.5h19.1l2.4-12.2h-18.4l4.3-24.3h16.3Z"
     id="path12"
     style="fill:#ffffff;fill-opacity:1" />
  <path
     d="M435.8,80.4l8.3-1.6c1-.3,2-.7,2.9-1.2.9-.5,1.7-1.1,2.4-1.9.7-.8,1.3-1.7,1.7-2.7.5-1.1.9-2.3,1.1-3.6l1.6-9.2c.4-1.7.4-3.5,0-5.3-.3-1.3-1-2.4-1.9-3.3-1.1-.9-2.4-1.4-3.7-1.7-1.7-.3-3.5-.5-5.2-.5h-22.8l-8.3,47.6h13.8l2.8-16.3M439.7,63l-.9,5.2c0,.3-.2.6-.3.9-.1.3-.3.5-.6.7-.2.2-.5.3-.8.4-.3.1-.7.2-1,.2h-5.8l1.6-9.6h5.8c.3,0,.7,0,1,.2.2,0,.5.2.7.4.2.2.3.4.3.7,0,.3,0,.6,0,1Z"
     id="path13"
     style="fill:#ffffff;fill-opacity:1" />
</svg>
